<?xml version="1.0" encoding="utf-8"?>
<!-- Generator: Adobe Illustrator 23.0.1, SVG Export Plug-In . SVG Version: 6.00 Build 0)  -->
<svg version="1.1" xmlns="http://www.w3.org/2000/svg" xmlns:xlink="http://www.w3.org/1999/xlink" x="0px" y="0px"
	 viewBox="0 0 747 250.86" style="enable-background:new 0 0 747 250.86;" xml:space="preserve">
<style type="text/css">
	.st0{fill:#FFFFFF;}
	.st1{fill:#3974B4;}
	.st2{fill:#C13234;}
	.st3{fill:#481A77;}
	.st4{fill:#F2D728;}
	.st5{fill:#2B9443;}
	.st6{fill:#D78E2F;}
</style>
<g id="Capa_2">
</g>
<g id="Capa_1">
	<g>
		<path class="st0" d="M349.19,129.8c-20.84-0.14-36.44-15.71-37.36-34.73c-0.5-10.32,2.81-19.36,9.85-26.91
			c6.49-6.97,14.6-10.83,24.11-11.46c10.14-0.68,19.13,2.35,26.74,9.09c7.6,6.73,11.74,15.3,12.28,25.44
			c0.55,10.43-2.83,19.56-10.01,27.16C367.62,125.98,358.64,129.6,349.19,129.8z M382.09,93.2c-0.07-18.57-14.86-33.93-34.04-33.81
			c-18.4,0.11-33.17,14.82-33.47,33.19c-0.31,19.23,14.97,34.25,33.41,34.39C367.09,127.12,381.99,111.85,382.09,93.2z"/>
		<path class="st1" d="M335.74,86.81c0,11.29,0,22.52,0,33.79c-0.19-0.09-0.37-0.16-0.55-0.24c-2.06-0.98-3.96-2.22-5.74-3.63
			c-1.36-1.08-2.6-2.3-3.75-3.6c-1.86-2.11-3.39-4.44-4.6-6.98c-0.97-2.02-1.71-4.13-2.18-6.32c-0.2-0.94-0.34-1.89-0.49-2.84
			c-0.01-0.07,0.06-0.2,0.12-0.23c2.93-1.7,5.85-3.4,8.78-5.09c2.72-1.57,5.44-3.15,8.16-4.72
			C335.57,86.9,335.64,86.87,335.74,86.81z"/>
		<path class="st2" d="M330.93,68.54c8.64-6.24,20.15-7.13,29.22-3.13c0,6.66,0,13.33,0,20.03
			C350.4,79.81,340.68,74.18,330.93,68.54z"/>
		<path class="st3" d="M347.53,79.06c-9.74,5.63-19.45,11.25-29.21,16.9c-0.33-3.08-0.13-6.11,0.53-9.09
			c1.6-7.32,5.44-13.24,11.35-17.84C335.97,72.38,341.74,75.71,347.53,79.06z"/>
		<path class="st4" d="M349.12,107.28c9.76-5.63,19.48-11.25,29.24-16.88c0.03,0.37,0.05,0.7,0.07,1.03c0.1,1.35,0.07,2.7-0.04,4.05
			c-0.15,2.05-0.52,4.07-1.08,6.04c-1.02,3.55-2.65,6.81-4.86,9.77c-1.29,1.74-2.77,3.31-4.4,4.72c-0.47,0.4-0.96,0.77-1.44,1.16
			c-0.12,0.1-0.2,0.1-0.33,0.02c-2.98-1.73-5.96-3.46-8.94-5.19C354.61,110.45,351.88,108.87,349.12,107.28z"/>
		<path class="st5" d="M365.79,117.84c-1.02,0.63-1.97,1.24-2.96,1.8c-1.42,0.81-2.91,1.48-4.46,2.01
			c-1.57,0.55-3.18,0.97-4.82,1.26c-1.6,0.29-3.21,0.43-4.82,0.46c-1.04,0.02-2.09-0.07-3.14-0.14c-2.21-0.14-4.35-0.64-6.45-1.3
			c-0.82-0.26-1.62-0.6-2.43-0.9c-0.14-0.05-0.18-0.13-0.18-0.28c0-6.54,0-13.08,0-19.63c0-0.06,0-0.12,0-0.22
			C346.29,106.56,356,112.18,365.79,117.84z"/>
		<path class="st6" d="M378.26,89.53c-5.76,3.32-11.51,6.65-17.29,9.98c0-11.26,0-22.5,0-33.76c4.73,2.23,8.67,5.41,11.73,9.64
			C375.75,79.61,377.62,84.32,378.26,89.53z"/>
	</g>
	<g>
		<path class="st0" d="M27.89,66.92V64.8h15.11l29.17,49.79v2.19H57.14L27.89,66.92z M27.89,73.19l14.36,24.56v19.04H27.89V73.19z
			 M57.82,83.77V64.8h14.36v43.52L57.82,83.77z"/>
		<path class="st0" d="M93.78,64.8h1.28l5.97,20.7l-8.69,31.28H77.23L93.78,64.8z M110.78,107.57H98.16l3.17-11.64h6.04L98.47,64.8
			h13.83l16.55,51.99h-15.41L110.78,107.57z"/>
		<path class="st0" d="M126.27,64.8h42.54v12.09h-42.54V64.8z M139.95,79.91h15.11v36.87h-15.11V79.91z"/>
		<path class="st0" d="M182.79,64.8h1.28l5.97,20.7l-8.69,31.28h-15.11L182.79,64.8z M199.79,107.57h-12.62l3.17-11.64h6.04
			l-8.92-31.13h13.83l16.55,51.99h-15.41L199.79,107.57z"/>
		<path class="st0" d="M222.91,64.8h15.11v51.99h-15.11V64.8z M241.2,104.62h16.17v12.17H241.2V104.62z"/>
		<path class="st0" d="M269.16,99.64l-0.68-1.51l-1.96-3.85l-1.89-4c-0.2-0.35-0.45-0.88-0.76-1.59l-3.1-6.42l-8.31-17.45h15.41
			l16.4,34.91v17.08h-15.11V99.64z M278.91,80.9l7.03-16.09h15.11l-5.89,12.24l-2.49,5.14l-4.76,9.9l-1.89,3.93L278.91,80.9z"/>
	</g>
	<g>
		<path class="st0" d="M414.13,65.1h1.28l5.97,20.7l-8.69,31.28h-15.11L414.13,65.1z M431.13,107.87h-12.62l3.17-11.64h6.04
			l-8.92-31.13h13.83l16.55,51.99h-15.42L431.13,107.87z"/>
		<path class="st0" d="M454.25,65.1h15.11v51.99h-15.11V65.1z M472.54,104.92h16.17v12.17h-16.17V104.92z"/>
		<path class="st0" d="M495.13,65.1h15.11v51.99h-15.11V65.1z M513.42,65.1h19.19v11.56h-19.19V65.1z M513.42,85.05h15.64v11.56
			h-15.64V85.05z M513.42,105.52h19.19v11.56h-19.19V105.52z"/>
		<path class="st0" d="M541.68,67.37V65.1h13.9l21.76,46.24l-2.49,5.74h-9.82L541.68,67.37z M541.68,74.85l13.9,29.62v12.62h-13.9
			V74.85z M584.37,95.25h-0.3L579,107.49l-6.5-13.9l11.86-28.49h14.36v51.99h-14.36V95.25z"/>
		<path class="st0" d="M620.33,65.1h1.28l5.97,20.7l-8.69,31.28h-15.11L620.33,65.1z M637.34,107.87h-12.62l3.17-11.64h6.04
			l-8.92-31.13h13.83l16.55,51.99h-15.42L637.34,107.87z"/>
		<path class="st0" d="M660.46,67.21V65.1h15.11l29.17,49.79v2.19H689.7L660.46,67.21z M660.46,73.49l14.36,24.56v19.04h-14.36
			V73.49z M690.38,84.06V65.1h14.36v43.52L690.38,84.06z"/>
	</g>
	<g>
		<path class="st0" d="M170.56,167.6c-0.28-0.02-0.63-0.04-1.04-0.06c-0.41-0.02-0.87-0.03-1.38-0.03l-2,0.03
			c-0.36,0.02-0.87,0.03-1.51,0.03c-0.04,0-0.06-0.06-0.06-0.18c0-0.12,0.02-0.18,0.06-0.18c0.79,0,1.37-0.05,1.74-0.15
			c0.37-0.1,0.63-0.3,0.77-0.59c0.14-0.29,0.21-0.74,0.21-1.35v-13.99c0-0.6-0.07-1.05-0.2-1.33c-0.13-0.28-0.38-0.48-0.76-0.59
			c-0.37-0.11-0.95-0.17-1.74-0.17c-0.04,0-0.06-0.06-0.06-0.18s0.02-0.18,0.06-0.18l1.48,0.03c0.85,0.04,1.51,0.06,2,0.06
			c0.71,0,1.42-0.03,2.15-0.09c0.89-0.04,1.49-0.06,1.81-0.06c2.12,0,3.99,0.4,5.62,1.21c1.63,0.81,2.9,1.9,3.79,3.29
			c0.9,1.39,1.35,2.95,1.35,4.68c0,1.96-0.47,3.68-1.41,5.18c-0.94,1.5-2.19,2.66-3.76,3.48c-1.57,0.82-3.29,1.22-5.17,1.22
			C171.94,167.69,171.28,167.66,170.56,167.6z M176.72,166.27c1.31-0.68,2.33-1.69,3.07-3.02c0.74-1.33,1.1-2.92,1.1-4.78
			c0-1.77-0.35-3.37-1.04-4.81c-0.7-1.43-1.69-2.56-2.99-3.4c-1.3-0.84-2.8-1.25-4.49-1.25c-0.89,0-1.57,0.05-2.04,0.15
			c-0.47,0.1-0.82,0.31-1.04,0.62c-0.22,0.31-0.33,0.78-0.33,1.41v13.6c0,0.6,0.09,1.09,0.27,1.45c0.18,0.36,0.5,0.63,0.97,0.8
			c0.46,0.17,1.14,0.26,2.02,0.26C173.91,167.3,175.41,166.96,176.72,166.27z"/>
		<path class="st0" d="M205.8,163.08c0.12,0.01,0.18,0.05,0.18,0.11c-0.18,1.27-0.27,2.58-0.27,3.93c0,0.16-0.04,0.28-0.11,0.35
			c-0.07,0.07-0.2,0.11-0.38,0.11h-12.48c-0.04,0-0.06-0.06-0.06-0.18c0-0.12,0.02-0.18,0.06-0.18c0.79,0,1.36-0.05,1.74-0.15
			c0.37-0.1,0.62-0.3,0.76-0.59c0.13-0.29,0.2-0.74,0.2-1.35v-13.99c0-0.6-0.07-1.05-0.2-1.33c-0.13-0.28-0.38-0.48-0.76-0.59
			c-0.37-0.11-0.95-0.17-1.74-0.17c-0.04,0-0.06-0.06-0.06-0.18s0.02-0.18,0.06-0.18h11.97c0.18,0,0.27,0.09,0.27,0.27l0.06,3.66
			c0,0.06-0.06,0.09-0.17,0.09s-0.17-0.03-0.17-0.09c0-1.03-0.27-1.84-0.82-2.45c-0.54-0.6-1.26-0.91-2.15-0.91h-2.09
			c-0.77,0-1.33,0.05-1.69,0.15c-0.36,0.1-0.61,0.29-0.74,0.57c-0.13,0.28-0.2,0.73-0.2,1.33v6.14h3.99c0.93,0,1.57-0.16,1.93-0.47
			c0.36-0.31,0.54-0.85,0.54-1.62c0-0.04,0.06-0.06,0.18-0.06c0.12,0,0.18,0.02,0.18,0.06l-0.03,2.39c0,0.58,0.01,1.02,0.03,1.3
			l0.03,1.42c0,0.04-0.06,0.06-0.18,0.06c-0.12,0-0.18-0.02-0.18-0.06c0-0.91-0.19-1.54-0.57-1.9c-0.38-0.36-1.06-0.54-2.03-0.54
			h-3.9V165c0,0.58,0.07,1.01,0.2,1.28c0.13,0.27,0.37,0.46,0.73,0.56c0.35,0.1,0.92,0.15,1.71,0.15h2.78c0.81,0,1.5-0.35,2.07-1.06
			c0.57-0.71,0.94-1.63,1.1-2.78C205.62,163.1,205.68,163.07,205.8,163.08z"/>
		<path class="st0" d="M219.34,154.42c0.38,0.58,0.85,1.07,1.41,1.47c0.55,0.39,1.32,0.88,2.31,1.47c1.05,0.62,1.86,1.14,2.43,1.56
			s1.07,0.94,1.48,1.59c0.41,0.65,0.62,1.42,0.62,2.33c0,0.95-0.23,1.81-0.7,2.58c-0.46,0.78-1.15,1.39-2.07,1.84
			c-0.92,0.45-2.04,0.68-3.37,0.68c-0.71,0-1.38-0.08-2.01-0.23c-0.63-0.15-1.33-0.42-2.1-0.8c-0.1-0.06-0.17-0.13-0.2-0.21
			c-0.03-0.08-0.06-0.2-0.08-0.36l-0.45-3.93v-0.03c0-0.08,0.05-0.13,0.15-0.14c0.1-0.01,0.16,0.03,0.18,0.11
			c0.2,1.39,0.74,2.6,1.6,3.63c0.87,1.03,2.06,1.54,3.57,1.54c1.07,0,1.97-0.29,2.71-0.88c0.74-0.58,1.1-1.5,1.1-2.75
			c0-0.91-0.2-1.69-0.6-2.34c-0.4-0.65-0.89-1.2-1.47-1.63c-0.57-0.43-1.36-0.94-2.34-1.53c-0.97-0.56-1.73-1.06-2.28-1.48
			c-0.55-0.42-1.03-0.95-1.42-1.59c-0.39-0.63-0.59-1.4-0.59-2.28c0-1.01,0.26-1.86,0.77-2.57c0.51-0.71,1.18-1.23,2.01-1.59
			c0.83-0.35,1.71-0.53,2.66-0.53c1.11,0,2.26,0.24,3.45,0.73c0.3,0.12,0.45,0.29,0.45,0.51l0.27,3.2c0,0.08-0.06,0.12-0.17,0.12
			c-0.11,0-0.18-0.04-0.2-0.12c-0.08-1.05-0.47-1.98-1.18-2.81c-0.71-0.83-1.71-1.24-3.02-1.24c-1.21,0-2.1,0.35-2.66,1.06
			c-0.56,0.71-0.85,1.55-0.85,2.54C218.77,153.14,218.96,153.84,219.34,154.42z"/>
		<path class="st0" d="M242.33,166.48c0.13,0.28,0.38,0.47,0.74,0.57c0.36,0.1,0.95,0.15,1.75,0.15c0.04,0,0.06,0.06,0.06,0.18
			c0,0.12-0.02,0.18-0.06,0.18c-0.6,0-1.08-0.01-1.42-0.03l-2.12-0.03l-2.03,0.03c-0.36,0.02-0.86,0.03-1.48,0.03
			c-0.06,0-0.09-0.06-0.09-0.18c0-0.12,0.03-0.18,0.09-0.18c0.79,0,1.36-0.05,1.74-0.15c0.37-0.1,0.63-0.3,0.77-0.59
			c0.14-0.29,0.21-0.74,0.21-1.35v-13.99c0-0.6-0.07-1.05-0.21-1.33c-0.14-0.28-0.4-0.48-0.77-0.59c-0.37-0.11-0.95-0.17-1.74-0.17
			c-0.06,0-0.09-0.06-0.09-0.18s0.03-0.18,0.09-0.18l1.48,0.03c0.85,0.04,1.52,0.06,2.03,0.06c0.56,0,1.27-0.02,2.12-0.06l1.42-0.03
			c0.04,0,0.06,0.06,0.06,0.18s-0.02,0.18-0.06,0.18c-0.79,0-1.37,0.06-1.74,0.18c-0.37,0.12-0.63,0.33-0.76,0.62
			c-0.13,0.29-0.2,0.74-0.2,1.34v13.93C242.13,165.75,242.19,166.2,242.33,166.48z"/>
		<path class="st0" d="M259.85,166.66c-1.62-0.85-2.86-1.99-3.72-3.45c-0.86-1.45-1.28-3.07-1.28-4.87c0-1.95,0.5-3.69,1.5-5.2
			s2.37-2.69,4.11-3.54c1.74-0.85,3.71-1.27,5.91-1.27c0.99,0,1.92,0.1,2.8,0.3c0.88,0.2,1.61,0.48,2.19,0.85
			c0.14,0.1,0.23,0.19,0.26,0.26c0.03,0.07,0.05,0.15,0.06,0.24c0.01,0.09,0.02,0.16,0.02,0.2l0.36,3.17c0,0.06-0.06,0.1-0.17,0.11
			c-0.11,0.01-0.18-0.02-0.2-0.08c-0.38-1.43-1.14-2.52-2.27-3.28c-1.13-0.76-2.56-1.13-4.29-1.13c-2.66,0-4.73,0.74-6.2,2.21
			c-1.47,1.47-2.21,3.51-2.21,6.11c0,1.93,0.41,3.67,1.24,5.21c0.83,1.54,1.97,2.75,3.43,3.61c1.46,0.87,3.1,1.3,4.91,1.3
			c1.09,0,1.93-0.09,2.52-0.27c0.59-0.18,1.03-0.53,1.3-1.06c0.27-0.52,0.41-1.3,0.41-2.33c0-1.05-0.07-1.78-0.21-2.19
			c-0.14-0.41-0.44-0.69-0.91-0.83c-0.46-0.14-1.27-0.21-2.42-0.21c-0.12,0-0.18-0.08-0.18-0.24c0-0.06,0.02-0.12,0.05-0.17
			s0.07-0.08,0.11-0.08c1.55,0.1,2.8,0.15,3.75,0.15c0.91,0,1.87-0.03,2.9-0.09c0.04,0,0.08,0.03,0.11,0.08
			c0.03,0.05,0.04,0.1,0.04,0.14c0,0.14-0.05,0.21-0.15,0.21c-0.52-0.02-0.9,0.05-1.12,0.2c-0.22,0.15-0.36,0.46-0.42,0.92
			s-0.09,1.27-0.09,2.42c0,0.91,0.04,1.55,0.11,1.93c0.07,0.38,0.11,0.63,0.11,0.73c0,0.12-0.02,0.2-0.06,0.24
			c-0.04,0.04-0.13,0.08-0.27,0.12c-2.36,0.56-4.45,0.85-6.29,0.85C263.39,167.93,261.48,167.51,259.85,166.66z"/>
		<path class="st0" d="M303.21,148.86c0,0.12-0.03,0.18-0.09,0.18c-0.87,0-1.48,0.21-1.83,0.63c-0.35,0.42-0.53,1.15-0.53,2.18
			v16.05c0,0.04-0.05,0.07-0.15,0.09c-0.1,0.02-0.17,0.01-0.21-0.03l-13.66-16.81l-0.51-0.57v13.84c0,1.03,0.17,1.75,0.51,2.16
			c0.34,0.41,0.94,0.62,1.78,0.62c0.06,0,0.09,0.06,0.09,0.18c0,0.12-0.03,0.18-0.09,0.18c-0.48,0-0.86-0.01-1.12-0.03l-1.45-0.03
			l-1.48,0.03c-0.26,0.02-0.66,0.03-1.18,0.03c-0.04,0-0.06-0.06-0.06-0.18c0-0.12,0.02-0.18,0.06-0.18c0.87,0,1.46-0.2,1.78-0.6
			c0.32-0.4,0.48-1.13,0.48-2.18v-14.48c-0.71-0.6-1.43-0.91-2.18-0.91c-0.06,0-0.09-0.06-0.09-0.18s0.03-0.18,0.09-0.18l1.09,0.03
			c0.22,0.02,0.53,0.03,0.94,0.03c0.34,0,0.62-0.01,0.85-0.03c0.22-0.02,0.39-0.03,0.51-0.03c0.14,0,0.26,0.04,0.35,0.11
			c0.09,0.07,0.2,0.22,0.32,0.44c0.22,0.36,0.46,0.71,0.73,1.03l11.94,14.84v-13.24c0-1.03-0.16-1.75-0.48-2.18
			c-0.32-0.42-0.91-0.63-1.75-0.63c-0.04,0-0.06-0.06-0.06-0.18s0.02-0.18,0.06-0.18l1.15,0.03c0.6,0.04,1.09,0.06,1.45,0.06
			c0.34,0,0.84-0.02,1.48-0.06l1.18-0.03C303.18,148.68,303.21,148.74,303.21,148.86z"/>
		<path class="st0" d="M349.6,167.39c0,0.12-0.03,0.18-0.09,0.18c-0.62,0-1.12-0.01-1.48-0.03l-2.02-0.03l-1.87,0.03
			c-0.3,0.02-0.73,0.03-1.27,0.03c-0.04,0-0.06-0.06-0.06-0.18c0-0.12,0.02-0.18,0.06-0.18c0.71,0,1.22-0.06,1.56-0.17
			s0.55-0.31,0.67-0.59c0.11-0.28,0.15-0.73,0.11-1.33l-0.51-14.05l-7.07,16.29c-0.04,0.08-0.12,0.12-0.24,0.12
			c-0.1,0-0.19-0.04-0.27-0.12l-7.37-16.17l-0.03-0.06l-0.24,13.3c-0.02,1.05,0.15,1.77,0.51,2.18c0.36,0.4,1.04,0.6,2.02,0.6
			c0.04,0,0.06,0.06,0.06,0.18c0,0.12-0.02,0.18-0.06,0.18c-0.56,0-1-0.01-1.3-0.03l-1.63-0.03l-1.48,0.03
			c-0.26,0.02-0.66,0.03-1.18,0.03c-0.04,0-0.06-0.06-0.06-0.18c0-0.12,0.02-0.18,0.06-0.18c0.85,0,1.45-0.21,1.8-0.62
			c0.35-0.41,0.54-1.13,0.56-2.16l0.3-14.33c-0.63-0.71-1.44-1.06-2.45-1.06c-0.04,0-0.06-0.06-0.06-0.18s0.02-0.18,0.06-0.18
			l1.03,0.03c0.2,0.02,0.46,0.03,0.79,0.03c0.32,0,0.59-0.01,0.82-0.03s0.39-0.03,0.51-0.03c0.28,0,0.5,0.1,0.66,0.29
			s0.4,0.62,0.73,1.28l6.8,14.69l6.77-15.51c0.1-0.22,0.24-0.4,0.41-0.54c0.17-0.14,0.34-0.21,0.5-0.21c0.08,0,0.21,0.01,0.39,0.03
			c0.18,0.02,0.43,0.03,0.76,0.03l1.36-0.03c0.2-0.02,0.51-0.03,0.94-0.03c0.04,0,0.06,0.06,0.06,0.18s-0.02,0.18-0.06,0.18
			c-1.05,0-1.79,0.14-2.22,0.41c-0.43,0.27-0.64,0.81-0.62,1.62l0.57,14.05c0.02,0.63,0.1,1.08,0.23,1.36s0.38,0.47,0.76,0.57
			c0.37,0.1,0.95,0.15,1.74,0.15C349.57,167.21,349.6,167.27,349.6,167.39z"/>
		<path class="st0" d="M379.31,167.39c0,0.12-0.03,0.18-0.09,0.18l-2.33-0.03l-1.42,0.03c-0.24,0-0.39-0.03-0.45-0.09
			c-0.06-0.06-0.09-0.22-0.09-0.48v-2.42c-1.31,1.19-2.56,2.05-3.75,2.57c-1.19,0.52-2.48,0.79-3.87,0.79
			c-1.27,0-2.4-0.24-3.39-0.73c-0.99-0.48-1.76-1.18-2.33-2.09c-0.56-0.91-0.85-1.96-0.85-3.17v-10.82c0-0.6-0.07-1.05-0.2-1.33
			c-0.13-0.28-0.38-0.48-0.76-0.59c-0.37-0.11-0.95-0.17-1.74-0.17c-0.06,0-0.09-0.06-0.09-0.18s0.03-0.18,0.09-0.18l1.45,0.03
			c0.81,0.04,1.47,0.06,1.99,0.06c0.56,0,1.27-0.02,2.12-0.06l1.39-0.03c0.06,0,0.09,0.06,0.09,0.18s-0.03,0.18-0.09,0.18
			c-0.79,0-1.37,0.06-1.74,0.18c-0.37,0.12-0.62,0.33-0.76,0.62c-0.13,0.29-0.2,0.74-0.2,1.34v9.7c0,2.04,0.51,3.59,1.53,4.67
			c1.02,1.08,2.41,1.62,4.19,1.62c1.21,0,2.35-0.23,3.42-0.69c1.07-0.46,2.23-1.25,3.48-2.36v-12.94c0-0.6-0.07-1.05-0.2-1.34
			c-0.13-0.29-0.38-0.5-0.76-0.62c-0.37-0.12-0.95-0.18-1.74-0.18c-0.06,0-0.09-0.06-0.09-0.18s0.03-0.18,0.09-0.18l1.42,0.03
			c0.85,0.04,1.54,0.06,2.09,0.06c0.5,0,1.18-0.02,2.03-0.06l1.45-0.03c0.06,0,0.09,0.06,0.09,0.18s-0.03,0.18-0.09,0.18
			c-0.79,0-1.37,0.06-1.74,0.17c-0.37,0.11-0.63,0.31-0.77,0.59c-0.14,0.28-0.21,0.73-0.21,1.33v13.99c0,0.6,0.07,1.05,0.21,1.35
			c0.14,0.29,0.4,0.49,0.77,0.59c0.37,0.1,0.95,0.15,1.74,0.15C379.29,167.21,379.31,167.27,379.31,167.39z"/>
		<path class="st0" d="M392.83,165c0,0.58,0.07,1.01,0.2,1.28s0.37,0.46,0.73,0.56c0.35,0.1,0.91,0.15,1.68,0.15h3.87
			c2,0,3.17-1.28,3.54-3.84c0-0.06,0.05-0.09,0.17-0.08c0.11,0.01,0.17,0.05,0.17,0.11c-0.18,1.59-0.27,2.9-0.27,3.93
			c0,0.16-0.03,0.28-0.09,0.35c-0.06,0.07-0.18,0.11-0.36,0.11h-13.9c-0.04,0-0.06-0.06-0.06-0.18c0-0.12,0.02-0.18,0.06-0.18
			c0.79,0,1.37-0.05,1.74-0.15c0.37-0.1,0.62-0.3,0.76-0.59c0.13-0.29,0.2-0.74,0.2-1.35v-13.99c0-0.6-0.07-1.05-0.2-1.33
			c-0.13-0.28-0.38-0.48-0.76-0.59c-0.37-0.11-0.95-0.17-1.74-0.17c-0.04,0-0.06-0.06-0.06-0.18s0.02-0.18,0.06-0.18l1.48,0.03
			c0.85,0.04,1.51,0.06,1.99,0.06c0.54,0,1.24-0.02,2.09-0.06l1.42-0.03c0.04,0,0.06,0.06,0.06,0.18s-0.02,0.18-0.06,0.18
			c-0.79,0-1.37,0.06-1.74,0.17c-0.37,0.11-0.63,0.31-0.76,0.6c-0.13,0.29-0.2,0.74-0.2,1.34V165z"/>
		<path class="st0" d="M413.2,150.1c-0.58,0.6-0.98,1.68-1.18,3.23c0,0.04-0.06,0.06-0.18,0.06s-0.18-0.02-0.18-0.06
			c0.08-0.54,0.17-1.42,0.27-2.61c0.1-1.2,0.15-2.1,0.15-2.71c0-0.1,0.06-0.15,0.18-0.15s0.18,0.05,0.18,0.15
			c0,0.44,0.53,0.67,1.6,0.67c1.73,0.06,3.76,0.09,6.08,0.09c1.19,0,2.45-0.02,3.78-0.06l2.05-0.03c0.73,0,1.26-0.05,1.6-0.15
			c0.34-0.1,0.56-0.3,0.67-0.6c0.02-0.08,0.08-0.12,0.18-0.12s0.15,0.04,0.15,0.12c-0.06,0.56-0.12,1.43-0.18,2.58
			c-0.06,1.16-0.09,2.1-0.09,2.83c0,0.04-0.06,0.06-0.18,0.06s-0.18-0.02-0.18-0.06c0-1.07-0.11-1.89-0.33-2.48
			c-0.22-0.58-0.59-1.01-1.12-1.27c-0.52-0.26-1.26-0.39-2.21-0.39c-1.05,0-1.78,0.04-2.21,0.11s-0.71,0.24-0.86,0.5
			c-0.15,0.26-0.23,0.73-0.23,1.39v13.93c0,0.63,0.07,1.08,0.21,1.36s0.42,0.47,0.85,0.57c0.42,0.1,1.09,0.15,2,0.15
			c0.04,0,0.06,0.06,0.06,0.18c0,0.12-0.02,0.18-0.06,0.18c-0.67,0-1.19-0.01-1.57-0.03l-2.33-0.03l-2.21,0.03
			c-0.4,0.02-0.96,0.03-1.66,0.03c-0.04,0-0.06-0.06-0.06-0.18c0-0.12,0.02-0.18,0.06-0.18c0.91,0,1.57-0.05,1.99-0.15
			c0.42-0.1,0.71-0.3,0.86-0.59c0.15-0.29,0.23-0.74,0.23-1.35v-13.99c0-0.66-0.08-1.12-0.24-1.38c-0.16-0.25-0.45-0.41-0.86-0.47
			c-0.41-0.06-1.16-0.09-2.25-0.09C414.71,149.19,413.78,149.5,413.2,150.1z"/>
		<path class="st0" d="M442.71,166.48c0.13,0.28,0.38,0.47,0.74,0.57c0.36,0.1,0.95,0.15,1.75,0.15c0.04,0,0.06,0.06,0.06,0.18
			c0,0.12-0.02,0.18-0.06,0.18c-0.6,0-1.08-0.01-1.42-0.03l-2.12-0.03l-2.03,0.03c-0.36,0.02-0.86,0.03-1.48,0.03
			c-0.06,0-0.09-0.06-0.09-0.18c0-0.12,0.03-0.18,0.09-0.18c0.79,0,1.36-0.05,1.74-0.15c0.37-0.1,0.63-0.3,0.77-0.59
			c0.14-0.29,0.21-0.74,0.21-1.35v-13.99c0-0.6-0.07-1.05-0.21-1.33c-0.14-0.28-0.4-0.48-0.77-0.59c-0.37-0.11-0.95-0.17-1.74-0.17
			c-0.06,0-0.09-0.06-0.09-0.18s0.03-0.18,0.09-0.18l1.48,0.03c0.85,0.04,1.52,0.06,2.03,0.06c0.56,0,1.27-0.02,2.12-0.06l1.42-0.03
			c0.04,0,0.06,0.06,0.06,0.18s-0.02,0.18-0.06,0.18c-0.79,0-1.37,0.06-1.74,0.18c-0.37,0.12-0.62,0.33-0.75,0.62
			c-0.13,0.29-0.2,0.74-0.2,1.34v13.93C442.51,165.75,442.58,166.2,442.71,166.48z"/>
		<path class="st0" d="M478.24,167.39c0,0.12-0.03,0.18-0.09,0.18c-0.63,0-1.12-0.01-1.48-0.03l-2.03-0.03l-1.87,0.03
			c-0.3,0.02-0.72,0.03-1.27,0.03c-0.04,0-0.06-0.06-0.06-0.18c0-0.12,0.02-0.18,0.06-0.18c0.71,0,1.22-0.06,1.56-0.17
			c0.33-0.11,0.55-0.31,0.66-0.59c0.11-0.28,0.15-0.73,0.11-1.33l-0.51-14.05l-7.07,16.29c-0.04,0.08-0.12,0.12-0.24,0.12
			c-0.1,0-0.19-0.04-0.27-0.12l-7.38-16.17l-0.03-0.06l-0.24,13.3c-0.02,1.05,0.15,1.77,0.51,2.18c0.36,0.4,1.04,0.6,2.03,0.6
			c0.04,0,0.06,0.06,0.06,0.18c0,0.12-0.02,0.18-0.06,0.18c-0.56,0-1-0.01-1.3-0.03l-1.63-0.03l-1.48,0.03
			c-0.26,0.02-0.66,0.03-1.18,0.03c-0.04,0-0.06-0.06-0.06-0.18c0-0.12,0.02-0.18,0.06-0.18c0.85,0,1.45-0.21,1.8-0.62
			c0.35-0.41,0.54-1.13,0.56-2.16l0.3-14.33c-0.62-0.71-1.44-1.06-2.45-1.06c-0.04,0-0.06-0.06-0.06-0.18s0.02-0.18,0.06-0.18
			l1.03,0.03c0.2,0.02,0.46,0.03,0.79,0.03c0.32,0,0.59-0.01,0.82-0.03s0.39-0.03,0.51-0.03c0.28,0,0.5,0.1,0.67,0.29
			s0.4,0.62,0.73,1.28l6.8,14.69l6.77-15.51c0.1-0.22,0.24-0.4,0.41-0.54c0.17-0.14,0.34-0.21,0.5-0.21c0.08,0,0.21,0.01,0.39,0.03
			c0.18,0.02,0.43,0.03,0.76,0.03l1.36-0.03c0.2-0.02,0.51-0.03,0.94-0.03c0.04,0,0.06,0.06,0.06,0.18s-0.02,0.18-0.06,0.18
			c-1.05,0-1.79,0.14-2.22,0.41c-0.43,0.27-0.64,0.81-0.62,1.62l0.57,14.05c0.02,0.63,0.1,1.08,0.23,1.36s0.38,0.47,0.76,0.57
			c0.37,0.1,0.95,0.15,1.74,0.15C478.21,167.21,478.24,167.27,478.24,167.39z"/>
		<path class="st0" d="M500.3,163.08c0.12,0.01,0.18,0.05,0.18,0.11c-0.18,1.27-0.27,2.58-0.27,3.93c0,0.16-0.04,0.28-0.11,0.35
			c-0.07,0.07-0.2,0.11-0.38,0.11h-12.48c-0.04,0-0.06-0.06-0.06-0.18c0-0.12,0.02-0.18,0.06-0.18c0.79,0,1.36-0.05,1.74-0.15
			c0.37-0.1,0.63-0.3,0.76-0.59s0.2-0.74,0.2-1.35v-13.99c0-0.6-0.07-1.05-0.2-1.33c-0.13-0.28-0.38-0.48-0.76-0.59
			c-0.37-0.11-0.95-0.17-1.74-0.17c-0.04,0-0.06-0.06-0.06-0.18s0.02-0.18,0.06-0.18h11.97c0.18,0,0.27,0.09,0.27,0.27l0.06,3.66
			c0,0.06-0.06,0.09-0.17,0.09s-0.17-0.03-0.17-0.09c0-1.03-0.27-1.84-0.82-2.45s-1.26-0.91-2.15-0.91h-2.09
			c-0.77,0-1.33,0.05-1.69,0.15c-0.36,0.1-0.61,0.29-0.74,0.57c-0.13,0.28-0.2,0.73-0.2,1.33v6.14h3.99c0.93,0,1.57-0.16,1.93-0.47
			c0.36-0.31,0.54-0.85,0.54-1.62c0-0.04,0.06-0.06,0.18-0.06c0.12,0,0.18,0.02,0.18,0.06l-0.03,2.39c0,0.58,0.01,1.02,0.03,1.3
			l0.03,1.42c0,0.04-0.06,0.06-0.18,0.06c-0.12,0-0.18-0.02-0.18-0.06c0-0.91-0.19-1.54-0.57-1.9s-1.06-0.54-2.03-0.54h-3.9V165
			c0,0.58,0.06,1.01,0.2,1.28c0.13,0.27,0.37,0.46,0.73,0.56c0.35,0.1,0.92,0.15,1.71,0.15h2.78c0.81,0,1.5-0.35,2.07-1.06
			c0.57-0.71,0.94-1.63,1.1-2.78C500.12,163.1,500.18,163.07,500.3,163.08z"/>
		<path class="st0" d="M516.11,167.6c-0.28-0.02-0.63-0.04-1.04-0.06c-0.41-0.02-0.87-0.03-1.38-0.03l-1.99,0.03
			c-0.36,0.02-0.87,0.03-1.51,0.03c-0.04,0-0.06-0.06-0.06-0.18c0-0.12,0.02-0.18,0.06-0.18c0.79,0,1.37-0.05,1.74-0.15
			c0.37-0.1,0.63-0.3,0.77-0.59c0.14-0.29,0.21-0.74,0.21-1.35v-13.99c0-0.6-0.07-1.05-0.2-1.33c-0.13-0.28-0.38-0.48-0.76-0.59
			c-0.37-0.11-0.95-0.17-1.74-0.17c-0.04,0-0.06-0.06-0.06-0.18s0.02-0.18,0.06-0.18l1.48,0.03c0.85,0.04,1.51,0.06,1.99,0.06
			c0.71,0,1.42-0.03,2.15-0.09c0.89-0.04,1.49-0.06,1.81-0.06c2.12,0,3.99,0.4,5.62,1.21c1.63,0.81,2.9,1.9,3.79,3.29
			c0.9,1.39,1.34,2.95,1.34,4.68c0,1.96-0.47,3.68-1.41,5.18c-0.94,1.5-2.19,2.66-3.76,3.48c-1.57,0.82-3.29,1.22-5.17,1.22
			C517.49,167.69,516.83,167.66,516.11,167.6z M522.27,166.27c1.31-0.68,2.33-1.69,3.07-3.02c0.74-1.33,1.1-2.92,1.1-4.78
			c0-1.77-0.35-3.37-1.04-4.81c-0.69-1.43-1.69-2.56-2.99-3.4c-1.3-0.84-2.79-1.25-4.49-1.25c-0.89,0-1.57,0.05-2.04,0.15
			c-0.47,0.1-0.82,0.31-1.04,0.62c-0.22,0.31-0.33,0.78-0.33,1.41v13.6c0,0.6,0.09,1.09,0.27,1.45c0.18,0.36,0.5,0.63,0.97,0.8
			c0.46,0.17,1.14,0.26,2.03,0.26C519.46,167.3,520.96,166.96,522.27,166.27z"/>
		<path class="st0" d="M542.96,166.48c0.13,0.28,0.38,0.47,0.74,0.57c0.36,0.1,0.95,0.15,1.75,0.15c0.04,0,0.06,0.06,0.06,0.18
			c0,0.12-0.02,0.18-0.06,0.18c-0.6,0-1.08-0.01-1.42-0.03l-2.12-0.03l-2.03,0.03c-0.36,0.02-0.86,0.03-1.48,0.03
			c-0.06,0-0.09-0.06-0.09-0.18c0-0.12,0.03-0.18,0.09-0.18c0.79,0,1.36-0.05,1.74-0.15c0.37-0.1,0.63-0.3,0.77-0.59
			c0.14-0.29,0.21-0.74,0.21-1.35v-13.99c0-0.6-0.07-1.05-0.21-1.33c-0.14-0.28-0.4-0.48-0.77-0.59c-0.37-0.11-0.95-0.17-1.74-0.17
			c-0.06,0-0.09-0.06-0.09-0.18s0.03-0.18,0.09-0.18l1.48,0.03c0.85,0.04,1.52,0.06,2.03,0.06c0.56,0,1.27-0.02,2.12-0.06l1.42-0.03
			c0.04,0,0.06,0.06,0.06,0.18s-0.02,0.18-0.06,0.18c-0.79,0-1.37,0.06-1.74,0.18c-0.37,0.12-0.62,0.33-0.75,0.62
			c-0.13,0.29-0.2,0.74-0.2,1.34v13.93C542.76,165.75,542.83,166.2,542.96,166.48z"/>
		<path class="st0" d="M575.1,167.39c0,0.12-0.04,0.18-0.12,0.18c-0.36,0-0.95-0.02-1.75-0.06c-0.77-0.04-1.33-0.06-1.69-0.06
			c-0.42,0-0.98,0.02-1.66,0.06c-0.65,0.04-1.13,0.06-1.45,0.06c-0.08,0-0.12-0.06-0.12-0.18c0-0.12,0.04-0.18,0.12-0.18
			c0.83,0,1.42-0.08,1.78-0.23c0.36-0.15,0.54-0.41,0.54-0.77c0-0.28-0.11-0.68-0.33-1.18l-3.6-7.71h-5.77l-2.72,6.53
			c-0.28,0.69-0.42,1.25-0.42,1.69c0,0.58,0.24,1.01,0.72,1.27c0.48,0.26,1.24,0.39,2.27,0.39c0.1,0,0.15,0.06,0.15,0.18
			c0,0.12-0.05,0.18-0.15,0.18c-0.36,0-0.89-0.02-1.57-0.06c-0.77-0.04-1.43-0.06-2-0.06c-0.5,0-1.1,0.02-1.78,0.06
			c-0.6,0.04-1.1,0.06-1.48,0.06c-0.1,0-0.15-0.06-0.15-0.18c0-0.12,0.05-0.18,0.15-0.18c0.56,0,1.04-0.1,1.44-0.3
			c0.39-0.2,0.77-0.56,1.12-1.09s0.73-1.27,1.13-2.24l6.32-15.2c0.04-0.06,0.11-0.09,0.2-0.09c0.09,0,0.15,0.03,0.17,0.09
			l7.01,15.05c0.46,1.03,0.88,1.81,1.24,2.34c0.36,0.53,0.72,0.91,1.07,1.12c0.35,0.21,0.76,0.32,1.22,0.32
			C575.06,167.21,575.1,167.27,575.1,167.39z M561.29,156.75h5.29l-2.81-5.98L561.29,156.75z"/>
	</g>
</g>
</svg>
