<?xml version="1.0" encoding="utf-8"?>
<!-- Generator: Adobe Illustrator 23.0.1, SVG Export Plug-In . SVG Version: 6.00 Build 0)  -->
<svg version="1.1" xmlns="http://www.w3.org/2000/svg" xmlns:xlink="http://www.w3.org/1999/xlink" x="0px" y="0px"
	 viewBox="0 0 747 250.86" style="enable-background:new 0 0 747 250.86;" xml:space="preserve">
<style type="text/css">
	.st0{fill:#FFFFFF;}
	.st1{fill:#3974B4;}
	.st2{fill:#C13234;}
	.st3{fill:#481A77;}
	.st4{fill:#F2D728;}
	.st5{fill:#2B9443;}
	.st6{fill:#D78E2F;}
	.st7{fill:none;}
	.st8{font-family:'SairaStencilOne-Regular';}
	.st9{font-size:75.5613px;}
	.st10{font-family:'CormorantInfant-Light';}
	.st11{font-size:30.2245px;}
</style>
<g id="Capa_2">
</g>
<g id="Capa_1">
	<g>
		<path class="st0" d="M349.19,129.8c-20.84-0.14-36.44-15.71-37.36-34.73c-0.5-10.32,2.81-19.36,9.85-26.91
			c6.49-6.97,14.6-10.83,24.11-11.46c10.14-0.68,19.13,2.35,26.74,9.09c7.6,6.73,11.74,15.3,12.28,25.44
			c0.55,10.43-2.83,19.56-10.01,27.16C367.62,125.98,358.64,129.6,349.19,129.8z M382.09,93.2c-0.07-18.57-14.86-33.93-34.04-33.81
			c-18.4,0.11-33.17,14.82-33.47,33.19c-0.31,19.23,14.97,34.25,33.41,34.39C367.09,127.12,381.99,111.85,382.09,93.2z"/>
		<path class="st1" d="M335.74,86.81c0,11.29,0,22.52,0,33.79c-0.19-0.09-0.37-0.16-0.55-0.24c-2.06-0.98-3.96-2.22-5.74-3.63
			c-1.36-1.08-2.6-2.3-3.75-3.6c-1.86-2.11-3.39-4.44-4.6-6.98c-0.97-2.02-1.71-4.13-2.18-6.32c-0.2-0.94-0.34-1.89-0.49-2.84
			c-0.01-0.07,0.06-0.2,0.12-0.23c2.93-1.7,5.85-3.4,8.78-5.09c2.72-1.57,5.44-3.15,8.16-4.72
			C335.57,86.9,335.64,86.87,335.74,86.81z"/>
		<path class="st2" d="M330.93,68.54c8.64-6.24,20.15-7.13,29.22-3.13c0,6.66,0,13.33,0,20.03
			C350.4,79.81,340.68,74.18,330.93,68.54z"/>
		<path class="st3" d="M347.53,79.06c-9.74,5.63-19.45,11.25-29.21,16.9c-0.33-3.08-0.13-6.11,0.53-9.09
			c1.6-7.32,5.44-13.24,11.35-17.84C335.97,72.38,341.74,75.71,347.53,79.06z"/>
		<path class="st4" d="M349.12,107.28c9.76-5.63,19.48-11.25,29.24-16.88c0.03,0.37,0.05,0.7,0.07,1.03c0.1,1.35,0.07,2.7-0.04,4.05
			c-0.15,2.05-0.52,4.07-1.08,6.04c-1.02,3.55-2.65,6.81-4.86,9.77c-1.29,1.74-2.77,3.31-4.4,4.72c-0.47,0.4-0.96,0.77-1.44,1.16
			c-0.12,0.1-0.2,0.1-0.33,0.02c-2.98-1.73-5.96-3.46-8.94-5.19C354.61,110.45,351.88,108.87,349.12,107.28z"/>
		<path class="st5" d="M365.79,117.84c-1.02,0.63-1.97,1.24-2.96,1.8c-1.42,0.81-2.91,1.48-4.46,2.01
			c-1.57,0.55-3.18,0.97-4.82,1.26c-1.6,0.29-3.21,0.43-4.82,0.46c-1.04,0.02-2.09-0.07-3.14-0.14c-2.21-0.14-4.35-0.64-6.45-1.3
			c-0.82-0.26-1.62-0.6-2.43-0.9c-0.14-0.05-0.18-0.13-0.18-0.28c0-6.54,0-13.08,0-19.63c0-0.06,0-0.12,0-0.22
			C346.29,106.56,356,112.18,365.79,117.84z"/>
		<path class="st6" d="M378.26,89.53c-5.76,3.32-11.51,6.65-17.29,9.98c0-11.26,0-22.5,0-33.76c4.73,2.23,8.67,5.41,11.73,9.64
			C375.75,79.61,377.62,84.32,378.26,89.53z"/>
	</g>
	<rect x="22.98" y="60.65" class="st7" width="303.32" height="75.56"/>
	<text transform="matrix(1 0 0 1 22.9815 116.789)" class="st0 st8 st9">NATALY</text>
	<rect x="397.43" y="60.94" class="st7" width="326.59" height="75.56"/>
	<text transform="matrix(1 0 0 1 397.4302 117.0844)" class="st0 st8 st9">ALEMAN</text>
	<rect x="163.55" y="145.66" class="st7" width="419.91" height="32.38"/>
	<text transform="matrix(1 0 0 1 163.5469 167.5712)" class="st0 st10 st11">D E S I G N   M U L T I M E D I A</text>
</g>
</svg>
